<svg width="31" height="39" viewBox="0 0 31 39" fill="none" xmlns="http://www.w3.org/2000/svg">
<path d="M8.29141 7.45447L9.365 6.4827C9.21362 5.18346 9.1554 4.16813 9.28365 3.26369C8.6038 2.45538 8.15061 2.09163 7.09853 1.7453C7.02329 4.07179 7.21517 5.33422 8.29141 7.45447Z" fill="#FF4925"/>
<path d="M12.7647 5.38946C12.6567 4.4104 12.5184 3.82998 11.9297 2.65634C11.5089 1.9843 11.1772 1.56747 10.3193 0.712799C9.72598 1.56739 9.41177 2.36021 9.28365 3.26371C9.1554 4.16814 9.21362 5.18347 9.365 6.48271L8.29141 7.45448C6.80954 9.52288 5.13852 10.5552 1.61129 12.3133C5.4529 11.884 9.18607 11.949 11.0579 11.8882C15.7848 12.0586 17.4309 14.4141 20.1974 19.3587C21.0233 11.8688 18.6744 7.42812 12.7647 5.38946Z" fill="#FF4925"/>
<path d="M11.0579 11.8882C9.18607 11.949 5.4529 11.884 1.61129 12.3133C2.13896 12.8292 3.87775 14.0747 5.9653 14.5605C8.05284 15.0465 10.1234 15.8967 10.8391 16.2612C14.6644 18.7632 15.3493 21.324 12.7647 26.1612C15.1037 24.44 16.9574 24.3319 19.3255 24.2176C19.7408 22.4729 20.0325 20.8549 20.1974 19.3587C17.4309 14.4141 15.7848 12.0586 11.0579 11.8882Z" fill="white"/>
<path d="M10.8391 16.2612C10.8759 16.8501 10.7198 18.0225 9.40762 18.8121C1.88325 23.7559 0.334414 26.5863 0.51336 31.5666C0.692306 36.547 7.15818 40.0089 12.7647 37.8224C15.9965 36.562 19.0283 35.6546 22.343 35.6298C21.9841 31.6414 22.9223 29.8487 26.301 27.3151C24.6685 25.4488 22.4879 24.4965 19.3255 24.2176C16.9574 24.3319 15.1037 24.44 12.7647 26.1612C15.3493 21.324 14.6644 18.7632 10.8391 16.2612Z" fill="#FF4925"/>
<path d="M30.3 37.2151C29.2465 32.5743 28.1103 29.3834 26.301 27.3151C22.9223 29.8487 21.9841 31.6414 22.343 35.6298C23.1774 35.6235 24.0297 35.6732 24.9077 35.7872C26.5926 36.0062 28.3719 36.4622 30.3 37.2151Z" fill="white"/>
<path fill-rule="evenodd" clip-rule="evenodd" d="M10.2566 0.00930786L10.634 0.385269C11.5093 1.25731 11.8653 1.70101 12.3091 2.41003L12.3207 2.42846L12.3304 2.44792C12.8852 3.55384 13.0641 4.17795 13.1776 5.05057C16.3957 6.22085 18.596 8.13212 19.7782 10.8975C19.8 10.9485 19.8214 10.9997 19.8425 11.0513C20.2381 12.0176 20.509 13.0789 20.6609 14.2368C20.7006 14.5394 20.7321 14.8486 20.7557 15.1646C20.9217 17.3932 20.6884 19.9565 20.0866 22.8712C20.0226 23.1814 19.9544 23.4955 19.882 23.8136C22.8509 24.1562 24.9998 25.1386 26.6371 27.0103C28.5289 29.173 29.6841 32.4673 30.7384 37.1118L30.929 37.9514L30.1389 37.643C28.2409 36.9019 26.4965 36.4556 24.8508 36.2418C23.993 36.1304 23.1608 36.0819 22.3463 36.0879C19.1119 36.1122 16.1397 36.9969 12.9257 38.2504C9.99509 39.3933 6.84435 39.0598 4.39929 37.7903C1.95906 36.5234 0.160752 34.2853 0.0636697 31.5834C-0.0279916 29.0323 0.323103 26.9723 1.70004 24.9173C3.05886 22.8895 5.39209 20.9051 9.16365 18.4271L9.17108 18.4222L9.1787 18.4176C10.1234 17.8492 10.357 17.0677 10.3896 16.551C9.54039 16.1564 7.70864 15.4364 5.86503 15.0073C3.68749 14.5005 1.87785 13.2091 1.29966 12.644L0.835317 12.19L1.41345 11.9018C4.79957 10.2139 6.39147 9.23228 7.76361 7.40823C7.28866 6.43858 6.9913 5.61988 6.82211 4.76808C6.6388 3.84521 6.61073 2.90677 6.64878 1.73024L6.66844 1.12216L7.23696 1.30931C7.78957 1.49122 8.21068 1.68617 8.58888 1.95598C8.74371 2.06643 8.88773 2.18689 9.02797 2.31938C9.21694 1.68128 9.51587 1.07626 9.95186 0.448286L10.2566 0.00930786ZM8.81167 3.40947C8.54153 3.09919 8.31802 2.88172 8.07248 2.70656C7.91561 2.59465 7.74316 2.49538 7.53472 2.40094C7.52793 3.24252 7.57309 3.92613 7.70424 4.5864C7.83776 5.25862 8.06364 5.9224 8.43247 6.71371L8.8911 6.29858C8.76898 5.19259 8.71762 4.26031 8.81167 3.40947ZM8.62616 7.76457C7.42047 9.43421 6.08336 10.4528 3.88635 11.6511C6.00512 11.5064 7.97611 11.4798 9.46766 11.4596C10.082 11.4513 10.6151 11.4441 11.0436 11.4302L11.0587 11.4298L11.0739 11.4303C13.5218 11.5186 15.2221 12.1791 16.6629 13.4917C17.8226 14.5482 18.7966 16.0139 19.8712 17.8688C19.9282 16.857 19.9185 15.912 19.8419 15.031C19.814 14.7101 19.7772 14.3978 19.7316 14.0938C19.5753 13.0518 19.3149 12.1089 18.9512 11.2592C17.8535 8.69576 15.7867 6.91576 12.6203 5.82346L12.3494 5.73002L12.3175 5.44061C12.2161 4.52089 12.094 3.99463 11.5387 2.88428C11.2146 2.36822 10.9468 2.01191 10.3935 1.43549C10.0267 2.06309 9.82341 2.66369 9.72904 3.3292C9.60969 4.17082 9.66125 5.13597 9.81187 6.42873L9.83955 6.66627L8.62616 7.76457ZM19.7336 19.4554C18.3799 17.0416 17.325 15.3247 16.0628 14.1746C14.8099 13.0332 13.3274 12.4309 11.057 12.3467C10.6106 12.361 10.0669 12.3683 9.44684 12.3768C7.68241 12.4007 5.30055 12.4331 2.78985 12.6559C3.57349 13.1807 4.74781 13.8071 6.06558 14.1138C8.18929 14.6082 10.2936 15.4712 11.0403 15.8513L11.0619 15.8623L11.0823 15.8757C13.0324 17.1511 14.2821 18.5042 14.6457 20.2399C14.932 21.6062 14.6514 23.1303 13.8702 24.9238C15.6175 24.0004 17.1854 23.8665 18.9663 23.7765C19.0887 23.2468 19.1992 22.7299 19.2977 22.2255C19.487 21.2562 19.6324 20.3333 19.7336 19.4554ZM19.3166 24.6767C16.9845 24.7897 15.2556 24.9012 13.05 26.5167L8.41771 30.8708C8.2351 31.0425 7.9504 31.0309 7.78183 30.8449C7.61325 30.659 7.62464 30.3691 7.80725 30.1974L12.4047 25.8759C13.6545 23.5194 14.0548 21.8116 13.7655 20.4311C13.5105 19.2138 12.6976 18.1531 11.2215 17.0777C11.073 17.764 10.658 18.589 9.64438 19.2019C5.89597 21.6653 3.69462 23.5667 2.44347 25.4339C1.20963 27.2753 0.875782 29.1206 0.963067 31.5499C1.04493 33.8283 2.56903 35.8114 4.8081 36.9738C7.04236 38.1339 9.92781 38.4381 12.6038 37.3945C15.6985 36.1876 18.6498 35.2864 21.8565 35.1813C21.7385 33.3868 21.9069 31.9834 22.5168 30.7243C23.1236 29.4718 24.1434 28.4124 25.6278 27.2565C24.1365 25.7432 22.1656 24.9324 19.3166 24.6767ZM26.2319 27.94C24.7589 29.0804 23.8487 30.0466 23.324 31.1296C22.8048 32.2013 22.6389 33.4387 22.7581 35.173C23.4786 35.1835 24.2126 35.235 24.9647 35.3328C26.4539 35.5263 28.0105 35.9003 29.6692 36.4914C28.7269 32.5442 27.7078 29.7952 26.2319 27.94Z" fill="black"/>
</svg>
