<svg width="222" height="39" viewBox="0 0 222 39" fill="none" xmlns="http://www.w3.org/2000/svg">
<path d="M5.82031 16.5215V37H0.757812V16.5215H5.82031ZM14.4863 24.959V28.9316H4.37891V24.959H14.4863ZM15.4004 16.5215V20.4941H4.37891V16.5215H15.4004Z" fill="#F1F1F1"/>
<path d="M36.1953 26.3477V27.1914C36.1953 28.75 35.9609 30.1504 35.4922 31.3926C35.0352 32.6348 34.3848 33.6953 33.541 34.5742C32.6973 35.4531 31.6895 36.127 30.5176 36.5957C29.3574 37.0527 28.0742 37.2812 26.668 37.2812C25.2617 37.2812 23.9727 37.0527 22.8008 36.5957C21.6406 36.127 20.6328 35.4531 19.7773 34.5742C18.9219 33.6953 18.2598 32.6348 17.791 31.3926C17.3223 30.1504 17.0879 28.75 17.0879 27.1914V26.3477C17.0879 24.7773 17.3164 23.377 17.7734 22.1465C18.2422 20.9043 18.8984 19.8438 19.7422 18.9648C20.5977 18.0742 21.6055 17.4004 22.7656 16.9434C23.9375 16.4746 25.2266 16.2402 26.6328 16.2402C28.0391 16.2402 29.3223 16.4746 30.4824 16.9434C31.6543 17.4004 32.668 18.0742 33.5234 18.9648C34.3789 19.8438 35.0352 20.9043 35.4922 22.1465C35.9609 23.377 36.1953 24.7773 36.1953 26.3477ZM31.1152 27.1914V26.3125C31.1152 25.3281 31.0098 24.4609 30.7988 23.7109C30.5996 22.9492 30.3066 22.3105 29.9199 21.7949C29.5449 21.2676 29.0762 20.8691 28.5137 20.5996C27.9629 20.3184 27.3359 20.1777 26.6328 20.1777C25.918 20.1777 25.2793 20.3184 24.7168 20.5996C24.166 20.8691 23.7031 21.2676 23.3281 21.7949C22.9531 22.3105 22.666 22.9492 22.4668 23.7109C22.2793 24.4609 22.1855 25.3281 22.1855 26.3125V27.1914C22.1855 28.1641 22.2793 29.0312 22.4668 29.793C22.666 30.5547 22.959 31.2051 23.3457 31.7441C23.7324 32.2715 24.2012 32.6758 24.752 32.957C25.3145 33.2266 25.9531 33.3613 26.668 33.3613C27.3711 33.3613 27.998 33.2266 28.5488 32.957C29.0996 32.6758 29.5625 32.2715 29.9375 31.7441C30.3242 31.2051 30.6172 30.5547 30.8164 29.793C31.0156 29.0312 31.1152 28.1641 31.1152 27.1914Z" fill="#F1F1F1"/>
<path d="M43.0332 16.5215L46.6191 23.2188L50.2578 16.5215H56.1113L49.8184 26.6816L56.6211 37H50.6094L46.6895 30.1621L42.9102 37H37.0391L43.5254 26.6816L37.2148 16.5215H43.0332Z" fill="#F1F1F1"/>
<path d="M65.375 27.5781L70.6836 16.5215H76.168L68.6621 30.3203H65.9199L65.375 27.5781ZM62.2285 16.5215L67.5723 27.6836L66.957 30.3203H64.25L56.7266 16.5215H62.2285ZM68.9258 27.3672V37H63.8457V27.3672H68.9258Z" fill="#F1F1F1"/>
<path d="M120.852 37H115.965L115.982 33.0449H120.852C122.047 33.0449 123.014 32.8281 123.752 32.3945C124.49 31.9609 125.023 31.3105 125.352 30.4434C125.691 29.5762 125.861 28.4922 125.861 27.1914V26.3125C125.861 25.3633 125.768 24.5254 125.58 23.7988C125.393 23.0605 125.1 22.4512 124.701 21.9707C124.303 21.4785 123.781 21.1094 123.137 20.8633C122.492 20.6172 121.707 20.4941 120.781 20.4941H115.859V16.5215H120.781C122.27 16.5215 123.635 16.7617 124.877 17.2422C126.119 17.7227 127.191 18.4023 128.094 19.2812C129.008 20.1484 129.711 21.1855 130.203 22.3926C130.695 23.5879 130.941 24.9062 130.941 26.3477V27.1914C130.941 29.1016 130.508 30.8008 129.641 32.2891C128.785 33.7656 127.596 34.9199 126.072 35.752C124.549 36.584 122.809 37 120.852 37ZM118.848 16.5215V37H113.785V16.5215H118.848Z" fill="#F1F1F1"/>
<path d="M133.807 16.5215H142.367C143.633 16.5215 144.775 16.6562 145.795 16.9258C146.814 17.1836 147.682 17.5703 148.396 18.0859C149.123 18.6016 149.68 19.2461 150.066 20.0195C150.453 20.7812 150.646 21.666 150.646 22.6738C150.646 23.8691 150.447 24.8652 150.049 25.6621C149.65 26.459 149.1 27.1094 148.396 27.6133C147.693 28.1172 146.879 28.5391 145.953 28.8789L144.266 29.8633H136.988L136.953 25.9082H142.402C143.105 25.9082 143.691 25.8027 144.16 25.5918C144.629 25.3691 144.98 25.0527 145.215 24.6426C145.449 24.2324 145.566 23.7461 145.566 23.1836C145.566 22.6094 145.443 22.123 145.197 21.7246C144.951 21.3262 144.588 21.0215 144.107 20.8105C143.639 20.5996 143.059 20.4941 142.367 20.4941H138.887V37H133.807V16.5215ZM145.953 37L141.049 27.9648L146.428 27.9121L151.42 36.7891V37H145.953Z" fill="#F1F1F1"/>
<path d="M159.418 16.5215V37H154.338V16.5215H159.418Z" fill="#F1F1F1"/>
<path d="M181.531 16.5215V37H176.451L168.348 23.957V37H163.285V16.5215H168.348L176.451 29.5645V16.5215H181.531Z" fill="#F1F1F1"/>
<path d="M190.109 16.5215V37H185.047V16.5215H190.109ZM203.152 16.5215L194.697 26.998L189.898 31.709L188.615 27.1914L191.867 22.8496L196.807 16.5215H203.152ZM197.334 37L191.428 27.8418L195.33 24.9766L203.346 37H197.334Z" fill="#F1F1F1"/>
<path d="M216.266 31.5156C216.266 31.1875 216.201 30.8887 216.072 30.6191C215.943 30.3379 215.727 30.0859 215.422 29.8633C215.129 29.6406 214.73 29.4297 214.227 29.2305C213.723 29.0312 213.096 28.8438 212.346 28.668C211.057 28.3633 209.938 28.0293 208.988 27.666C208.051 27.291 207.271 26.8633 206.65 26.3828C206.041 25.8906 205.584 25.3047 205.279 24.625C204.975 23.9453 204.822 23.1484 204.822 22.2344C204.822 21.3555 205.016 20.5469 205.402 19.8086C205.789 19.0703 206.334 18.4375 207.037 17.9102C207.74 17.3828 208.572 16.9727 209.533 16.6797C210.494 16.3867 211.543 16.2402 212.68 16.2402C214.332 16.2402 215.791 16.498 217.057 17.0137C218.334 17.5293 219.33 18.2617 220.045 19.2109C220.76 20.1484 221.117 21.2793 221.117 22.6035H216.055C216.055 22.1113 215.92 21.6602 215.65 21.25C215.393 20.8398 215.018 20.5117 214.525 20.2656C214.033 20.0078 213.424 19.8789 212.697 19.8789C211.994 19.8789 211.414 19.9902 210.957 20.2129C210.5 20.4238 210.16 20.6992 209.938 21.0391C209.727 21.3672 209.621 21.707 209.621 22.0586C209.621 22.3516 209.686 22.6211 209.814 22.8672C209.955 23.1133 210.172 23.3418 210.465 23.5527C210.77 23.752 211.162 23.9453 211.643 24.1328C212.135 24.3086 212.727 24.4844 213.418 24.6602C214.707 24.9414 215.826 25.2754 216.775 25.6621C217.736 26.0371 218.533 26.4883 219.166 27.0156C219.811 27.543 220.291 28.1699 220.607 28.8965C220.924 29.6113 221.082 30.4375 221.082 31.375C221.082 32.3125 220.889 33.1504 220.502 33.8887C220.127 34.6152 219.582 35.2305 218.867 35.7344C218.164 36.2383 217.314 36.625 216.318 36.8945C215.334 37.1523 214.232 37.2812 213.014 37.2812C211.924 37.2812 210.852 37.1523 209.797 36.8945C208.742 36.6367 207.787 36.2383 206.932 35.6992C206.076 35.1484 205.391 34.4453 204.875 33.5898C204.371 32.7344 204.119 31.709 204.119 30.5137H209.199C209.199 31.0762 209.281 31.5566 209.445 31.9551C209.621 32.3535 209.879 32.6816 210.219 32.9395C210.57 33.1855 210.998 33.3672 211.502 33.4844C212.018 33.6016 212.609 33.6602 213.277 33.6602C214.027 33.6602 214.619 33.5547 215.053 33.3438C215.498 33.1211 215.809 32.8457 215.984 32.5176C216.172 32.1895 216.266 31.8555 216.266 31.5156Z" fill="#F1F1F1"/>
<path d="M86.2914 7.45447L87.365 6.4827C87.2136 5.18346 87.1554 4.16813 87.2837 3.26369C86.6038 2.45538 86.1506 2.09163 85.0985 1.7453C85.0233 4.07179 85.2152 5.33422 86.2914 7.45447Z" fill="#FF4925"/>
<path d="M90.7647 5.38946C90.6567 4.4104 90.5184 3.82998 89.9297 2.65634C89.5089 1.9843 89.1772 1.56747 88.3193 0.712799C87.726 1.56739 87.4118 2.36021 87.2837 3.26371C87.1554 4.16814 87.2136 5.18347 87.365 6.48271L86.2914 7.45448C84.8095 9.52288 83.1385 10.5552 79.6113 12.3133C83.4529 11.884 87.1861 11.949 89.0579 11.8882C93.7848 12.0586 95.4309 14.4141 98.1974 19.3587C99.0233 11.8688 96.6744 7.42812 90.7647 5.38946Z" fill="#FF4925"/>
<path d="M89.0579 11.8882C87.1861 11.949 83.4529 11.884 79.6113 12.3133C80.139 12.8292 81.8778 14.0747 83.9653 14.5605C86.0528 15.0465 88.1234 15.8967 88.8391 16.2612C92.6644 18.7632 93.3493 21.324 90.7647 26.1612C93.1037 24.44 94.9574 24.3319 97.3255 24.2176C97.7408 22.4729 98.0325 20.8549 98.1974 19.3587C95.4309 14.4141 93.7848 12.0586 89.0579 11.8882Z" fill="white"/>
<path d="M88.8391 16.2612C88.8759 16.8501 88.7198 18.0225 87.4076 18.8121C79.8833 23.7559 78.3344 26.5863 78.5134 31.5666C78.6923 36.547 85.1582 40.0089 90.7647 37.8224C93.9965 36.562 97.0283 35.6546 100.343 35.6298C99.9841 31.6414 100.922 29.8487 104.301 27.3151C102.668 25.4488 100.488 24.4965 97.3255 24.2176C94.9574 24.3319 93.1037 24.44 90.7647 26.1612C93.3493 21.324 92.6644 18.7632 88.8391 16.2612Z" fill="#FF4925"/>
<path d="M108.3 37.2151C107.247 32.5743 106.11 29.3834 104.301 27.3151C100.922 29.8487 99.9841 31.6414 100.343 35.6298C101.177 35.6235 102.03 35.6732 102.908 35.7872C104.593 36.0062 106.372 36.4622 108.3 37.2151Z" fill="white"/>
<path fill-rule="evenodd" clip-rule="evenodd" d="M88.2566 0.00930786L88.634 0.385269C89.5093 1.25731 89.8653 1.70101 90.3091 2.41003L90.3207 2.42846L90.3304 2.44792C90.8852 3.55384 91.0641 4.17795 91.1776 5.05057C94.3957 6.22085 96.596 8.13212 97.7782 10.8975C97.8 10.9485 97.8214 10.9997 97.8425 11.0513C98.2381 12.0176 98.509 13.0789 98.6609 14.2368C98.7006 14.5394 98.7321 14.8486 98.7557 15.1646C98.9217 17.3932 98.6884 19.9565 98.0866 22.8712C98.0226 23.1814 97.9544 23.4955 97.882 23.8136C100.851 24.1562 103 25.1386 104.637 27.0103C106.529 29.173 107.684 32.4673 108.738 37.1118L108.929 37.9514L108.139 37.643C106.241 36.9019 104.496 36.4556 102.851 36.2418C101.993 36.1304 101.161 36.0819 100.346 36.0879C97.1119 36.1122 94.1397 36.9969 90.9257 38.2504C87.9951 39.3933 84.8443 39.0598 82.3993 37.7903C79.9591 36.5234 78.1607 34.2853 78.0637 31.5834C77.972 29.0323 78.3231 26.9723 79.7 24.9173C81.0589 22.8895 83.3921 20.9051 87.1636 18.4271L87.1711 18.4222L87.1787 18.4176C88.1234 17.8492 88.357 17.0677 88.3896 16.551C87.5404 16.1564 85.7086 15.4364 83.865 15.0073C81.6875 14.5005 79.8778 13.2091 79.2997 12.644L78.8353 12.19L79.4134 11.9018C82.7996 10.2139 84.3915 9.23228 85.7636 7.40823C85.2887 6.43858 84.9913 5.61988 84.8221 4.76808C84.6388 3.84521 84.6107 2.90677 84.6488 1.73024L84.6684 1.12216L85.237 1.30931C85.7896 1.49122 86.2107 1.68617 86.5889 1.95598C86.7437 2.06643 86.8877 2.18689 87.028 2.31938C87.2169 1.68128 87.5159 1.07626 87.9519 0.448286L88.2566 0.00930786ZM86.8117 3.40947C86.5415 3.09919 86.318 2.88172 86.0725 2.70656C85.9156 2.59465 85.7432 2.49538 85.5347 2.40094C85.5279 3.24252 85.5731 3.92613 85.7042 4.5864C85.8378 5.25862 86.0636 5.9224 86.4325 6.71371L86.8911 6.29858C86.769 5.19259 86.7176 4.26031 86.8117 3.40947ZM86.6262 7.76457C85.4205 9.43421 84.0834 10.4528 81.8863 11.6511C84.0051 11.5064 85.9761 11.4798 87.4677 11.4596C88.082 11.4513 88.6151 11.4441 89.0436 11.4302L89.0587 11.4298L89.0739 11.4303C91.5218 11.5186 93.2221 12.1791 94.6629 13.4917C95.8226 14.5482 96.7966 16.0139 97.8712 17.8688C97.9282 16.857 97.9185 15.912 97.8419 15.031C97.814 14.7101 97.7772 14.3978 97.7316 14.0938C97.5753 13.0518 97.3149 12.1089 96.9512 11.2592C95.8535 8.69576 93.7867 6.91576 90.6203 5.82346L90.3494 5.73002L90.3175 5.44061C90.2161 4.52089 90.094 3.99463 89.5387 2.88428C89.2146 2.36822 88.9468 2.01191 88.3935 1.43549C88.0267 2.06309 87.8234 2.66369 87.729 3.3292C87.6097 4.17082 87.6612 5.13597 87.8119 6.42873L87.8395 6.66627L86.6262 7.76457ZM97.7336 19.4554C96.3799 17.0416 95.325 15.3247 94.0628 14.1746C92.8099 13.0332 91.3274 12.4309 89.057 12.3467C88.6106 12.361 88.0669 12.3683 87.4468 12.3768C85.6824 12.4007 83.3005 12.4331 80.7898 12.6559C81.5735 13.1807 82.7478 13.8071 84.0656 14.1138C86.1893 14.6082 88.2936 15.4712 89.0403 15.8513L89.0619 15.8623L89.0823 15.8757C91.0324 17.1511 92.2821 18.5042 92.6457 20.2399C92.932 21.6062 92.6514 23.1303 91.8702 24.9238C93.6175 24.0004 95.1854 23.8665 96.9663 23.7765C97.0887 23.2468 97.1992 22.7299 97.2977 22.2255C97.487 21.2562 97.6324 20.3333 97.7336 19.4554ZM97.3166 24.6767C94.9845 24.7897 93.2556 24.9012 91.05 26.5167L86.4177 30.8708C86.2351 31.0425 85.9504 31.0309 85.7818 30.8449C85.6132 30.659 85.6246 30.3691 85.8072 30.1974L90.4047 25.8759C91.6545 23.5194 92.0548 21.8116 91.7655 20.4311C91.5105 19.2138 90.6976 18.1531 89.2215 17.0777C89.073 17.764 88.658 18.589 87.6444 19.2019C83.896 21.6653 81.6946 23.5667 80.4435 25.4339C79.2096 27.2753 78.8758 29.1206 78.9631 31.5499C79.0449 33.8283 80.569 35.8114 82.8081 36.9738C85.0424 38.1339 87.9278 38.4381 90.6038 37.3945C93.6985 36.1876 96.6498 35.2864 99.8565 35.1813C99.7385 33.3868 99.9069 31.9834 100.517 30.7243C101.124 29.4718 102.143 28.4124 103.628 27.2565C102.136 25.7432 100.166 24.9324 97.3166 24.6767ZM104.232 27.94C102.759 29.0804 101.849 30.0466 101.324 31.1296C100.805 32.2013 100.639 33.4387 100.758 35.173C101.479 35.1835 102.213 35.235 102.965 35.3328C104.454 35.5263 106.01 35.9003 107.669 36.4914C106.727 32.5442 105.708 29.7952 104.232 27.94Z" fill="black"/>
</svg>
